<mxfile host="app.diagrams.net" modified="2023-01-27T08:53:33.433Z" agent="5.0 (X11)" etag="9k5xHPQ8F4iUfaoeYVql" version="20.8.13" type="gitlab">
  <diagram name="Page-1" id="Vfwr5uenpk2pbD5P71Gp">
    <mxGraphModel dx="1094" dy="1666" grid="1" gridSize="10" guides="1" tooltips="1" connect="1" arrows="1" fold="1" page="1" pageScale="1" pageWidth="850" pageHeight="1100" math="0" shadow="0">
      <root>
        <mxCell id="0" />
        <mxCell id="1" parent="0" />
        <mxCell id="vQ33bp7E2cLdNLxbvYFG-9" style="edgeStyle=orthogonalEdgeStyle;rounded=0;orthogonalLoop=1;jettySize=auto;html=1;entryX=0;entryY=0.5;entryDx=0;entryDy=0;" edge="1" parent="1" source="vQ33bp7E2cLdNLxbvYFG-1" target="vQ33bp7E2cLdNLxbvYFG-4">
          <mxGeometry relative="1" as="geometry">
            <mxPoint x="100" y="200" as="targetPoint" />
          </mxGeometry>
        </mxCell>
        <mxCell id="vQ33bp7E2cLdNLxbvYFG-1" value="Actor" style="shape=umlActor;verticalLabelPosition=bottom;verticalAlign=top;html=1;outlineConnect=0;" vertex="1" parent="1">
          <mxGeometry x="40" y="170" width="30" height="60" as="geometry" />
        </mxCell>
        <mxCell id="vQ33bp7E2cLdNLxbvYFG-10" style="edgeStyle=orthogonalEdgeStyle;rounded=0;orthogonalLoop=1;jettySize=auto;html=1;entryX=0.537;entryY=-0.049;entryDx=0;entryDy=0;entryPerimeter=0;" edge="1" parent="1" source="vQ33bp7E2cLdNLxbvYFG-4" target="vQ33bp7E2cLdNLxbvYFG-5">
          <mxGeometry relative="1" as="geometry">
            <mxPoint x="330" y="300" as="targetPoint" />
          </mxGeometry>
        </mxCell>
        <mxCell id="vQ33bp7E2cLdNLxbvYFG-13" value="Query Product Detail" style="edgeStyle=orthogonalEdgeStyle;rounded=0;orthogonalLoop=1;jettySize=auto;html=1;" edge="1" parent="1" source="vQ33bp7E2cLdNLxbvYFG-4" target="vQ33bp7E2cLdNLxbvYFG-7">
          <mxGeometry relative="1" as="geometry" />
        </mxCell>
        <mxCell id="vQ33bp7E2cLdNLxbvYFG-14" style="edgeStyle=orthogonalEdgeStyle;rounded=0;orthogonalLoop=1;jettySize=auto;html=1;" edge="1" parent="1" source="vQ33bp7E2cLdNLxbvYFG-4" target="vQ33bp7E2cLdNLxbvYFG-6">
          <mxGeometry relative="1" as="geometry" />
        </mxCell>
        <mxCell id="vQ33bp7E2cLdNLxbvYFG-15" value="Query Payment Method + Payment Provider" style="edgeStyle=orthogonalEdgeStyle;rounded=0;orthogonalLoop=1;jettySize=auto;html=1;entryX=0.5;entryY=1;entryDx=0;entryDy=0;entryPerimeter=0;" edge="1" parent="1" source="vQ33bp7E2cLdNLxbvYFG-4" target="vQ33bp7E2cLdNLxbvYFG-8">
          <mxGeometry relative="1" as="geometry">
            <mxPoint x="400" y="110" as="targetPoint" />
          </mxGeometry>
        </mxCell>
        <mxCell id="vQ33bp7E2cLdNLxbvYFG-17" style="edgeStyle=orthogonalEdgeStyle;rounded=0;orthogonalLoop=1;jettySize=auto;html=1;startArrow=none;startFill=0;" edge="1" parent="1" source="vQ33bp7E2cLdNLxbvYFG-4" target="vQ33bp7E2cLdNLxbvYFG-16">
          <mxGeometry relative="1" as="geometry" />
        </mxCell>
        <mxCell id="vQ33bp7E2cLdNLxbvYFG-19" value="Product Detail + Price &lt;br&gt;(fee &amp;amp; discount) + Payment Method" style="edgeLabel;html=1;align=center;verticalAlign=middle;resizable=0;points=[];" vertex="1" connectable="0" parent="vQ33bp7E2cLdNLxbvYFG-17">
          <mxGeometry x="-0.0621" relative="1" as="geometry">
            <mxPoint as="offset" />
          </mxGeometry>
        </mxCell>
        <mxCell id="vQ33bp7E2cLdNLxbvYFG-4" value="Payment Gateway Service" style="ellipse;whiteSpace=wrap;html=1;" vertex="1" parent="1">
          <mxGeometry x="350" y="165" width="100" height="70" as="geometry" />
        </mxCell>
        <mxCell id="vQ33bp7E2cLdNLxbvYFG-5" value="Flight Service" style="ellipse;whiteSpace=wrap;html=1;" vertex="1" parent="1">
          <mxGeometry x="250" y="310" width="100" height="70" as="geometry" />
        </mxCell>
        <mxCell id="vQ33bp7E2cLdNLxbvYFG-6" value="Tour Service" style="ellipse;whiteSpace=wrap;html=1;" vertex="1" parent="1">
          <mxGeometry x="450" y="310" width="100" height="70" as="geometry" />
        </mxCell>
        <mxCell id="vQ33bp7E2cLdNLxbvYFG-7" value="Hotel Service" style="ellipse;whiteSpace=wrap;html=1;" vertex="1" parent="1">
          <mxGeometry x="350" y="380" width="100" height="70" as="geometry" />
        </mxCell>
        <mxCell id="vQ33bp7E2cLdNLxbvYFG-8" value="DB" style="shape=cylinder3;whiteSpace=wrap;html=1;boundedLbl=1;backgroundOutline=1;size=15;" vertex="1" parent="1">
          <mxGeometry x="370" y="20" width="60" height="80" as="geometry" />
        </mxCell>
        <mxCell id="vQ33bp7E2cLdNLxbvYFG-16" value="Actor" style="shape=umlActor;verticalLabelPosition=bottom;verticalAlign=top;html=1;outlineConnect=0;" vertex="1" parent="1">
          <mxGeometry x="740" y="170" width="30" height="60" as="geometry" />
        </mxCell>
        <mxCell id="vQ33bp7E2cLdNLxbvYFG-18" value="ABA" style="ellipse;whiteSpace=wrap;html=1;aspect=fixed;" vertex="1" parent="1">
          <mxGeometry x="80" y="-300" width="80" height="80" as="geometry" />
        </mxCell>
      </root>
    </mxGraphModel>
  </diagram>
</mxfile>
